<mxfile host="65bd71144e">
    <diagram id="lHUsO2kwJ7aQyrkLWwhJ" name="페이지-1">
        <mxGraphModel dx="4294" dy="2099" grid="1" gridSize="10" guides="1" tooltips="1" connect="1" arrows="1" fold="1" page="1" pageScale="1" pageWidth="1169" pageHeight="827" math="0" shadow="0">
            <root>
                <mxCell id="0"/>
                <mxCell id="1" parent="0"/>
                <mxCell id="15" value="JAVA / DB " style="shape=table;startSize=90;container=1;collapsible=0;childLayout=tableLayout;fixedRows=1;rowLines=0;fontStyle=1;fontSize=23;" vertex="1" parent="1">
                    <mxGeometry x="55" y="-800" width="1060" height="260" as="geometry"/>
                </mxCell>
                <mxCell id="16" value="" style="shape=tableRow;horizontal=0;startSize=0;swimlaneHead=0;swimlaneBody=0;top=0;left=0;bottom=0;right=0;collapsible=0;dropTarget=0;fillColor=none;points=[[0,0.5],[1,0.5]];portConstraint=eastwest;fontSize=23;" vertex="1" parent="15">
                    <mxGeometry y="90" width="1060" height="50" as="geometry"/>
                </mxCell>
                <mxCell id="17" value="1" style="shape=partialRectangle;html=1;whiteSpace=wrap;connectable=0;fillColor=none;top=0;left=0;bottom=0;right=0;overflow=hidden;pointerEvents=1;fontSize=23;" vertex="1" parent="16">
                    <mxGeometry width="151" height="50" as="geometry">
                        <mxRectangle width="151" height="50" as="alternateBounds"/>
                    </mxGeometry>
                </mxCell>
                <mxCell id="18" value="&lt;table cellpadding=&quot;0&quot; cellspacing=&quot;0&quot; style=&quot;font-size: 23px;&quot;&gt;&lt;tbody style=&quot;font-size: 23px;&quot;&gt;&lt;tr style=&quot;font-size: 23px;&quot;&gt;&lt;td valign=&quot;top&quot; colspan=&quot;10&quot; style=&quot;font-size: 23px;&quot;&gt;&lt;p style=&quot;margin: 0px; font-variant-numeric: normal; font-variant-east-asian: normal; font-variant-alternates: normal; font-size-adjust: none; font-kerning: auto; font-optical-sizing: auto; font-feature-settings: normal; font-variation-settings: normal; font-variant-position: normal; font-stretch: normal; font-size: 23px; line-height: normal;&quot; class=&quot;p1&quot;&gt;JAVA, DB 이용한 console 플랫폼 제작 과 GIT 이용한 협업&lt;/p&gt;&lt;/td&gt;&lt;/tr&gt;&lt;/tbody&gt;&lt;/table&gt;" style="shape=partialRectangle;html=1;whiteSpace=wrap;connectable=0;fillColor=none;top=0;left=0;bottom=0;right=0;align=left;spacingLeft=6;overflow=hidden;fontSize=23;" vertex="1" parent="16">
                    <mxGeometry x="151" width="909" height="50" as="geometry">
                        <mxRectangle width="909" height="50" as="alternateBounds"/>
                    </mxGeometry>
                </mxCell>
                <mxCell id="19" value="" style="shape=tableRow;horizontal=0;startSize=0;swimlaneHead=0;swimlaneBody=0;top=0;left=0;bottom=0;right=0;collapsible=0;dropTarget=0;fillColor=none;points=[[0,0.5],[1,0.5]];portConstraint=eastwest;fontSize=23;" vertex="1" parent="15">
                    <mxGeometry y="140" width="1060" height="60" as="geometry"/>
                </mxCell>
                <mxCell id="20" value="2" style="shape=partialRectangle;html=1;whiteSpace=wrap;connectable=0;fillColor=none;top=0;left=0;bottom=0;right=0;overflow=hidden;fontSize=23;" vertex="1" parent="19">
                    <mxGeometry width="151" height="60" as="geometry">
                        <mxRectangle width="151" height="60" as="alternateBounds"/>
                    </mxGeometry>
                </mxCell>
                <mxCell id="21" value="&lt;table cellpadding=&quot;0&quot; cellspacing=&quot;0&quot; style=&quot;font-size: 23px;&quot;&gt;&lt;tbody style=&quot;font-size: 23px;&quot;&gt;&lt;tr style=&quot;font-size: 23px;&quot;&gt;&lt;td valign=&quot;top&quot; colspan=&quot;10&quot; style=&quot;font-size: 23px;&quot;&gt;&lt;p style=&quot;margin: 0px; font-variant-numeric: normal; font-variant-east-asian: normal; font-variant-alternates: normal; font-size-adjust: none; font-kerning: auto; font-optical-sizing: auto; font-feature-settings: normal; font-variation-settings: normal; font-variant-position: normal; font-stretch: normal; font-size: 23px; line-height: normal;&quot; class=&quot;p1&quot;&gt;강의간 부족했던 부분을 채우고 질의응답을 통해 개월차 강의 정리&lt;/p&gt;&lt;/td&gt;&lt;/tr&gt;&lt;/tbody&gt;&lt;/table&gt;" style="shape=partialRectangle;html=1;whiteSpace=wrap;connectable=0;fillColor=none;top=0;left=0;bottom=0;right=0;align=left;spacingLeft=6;overflow=hidden;fontSize=23;" vertex="1" parent="19">
                    <mxGeometry x="151" width="909" height="60" as="geometry">
                        <mxRectangle width="909" height="60" as="alternateBounds"/>
                    </mxGeometry>
                </mxCell>
                <mxCell id="22" value="" style="shape=tableRow;horizontal=0;startSize=0;swimlaneHead=0;swimlaneBody=0;top=0;left=0;bottom=0;right=0;collapsible=0;dropTarget=0;fillColor=none;points=[[0,0.5],[1,0.5]];portConstraint=eastwest;fontSize=23;" vertex="1" parent="15">
                    <mxGeometry y="200" width="1060" height="60" as="geometry"/>
                </mxCell>
                <mxCell id="23" value="3" style="shape=partialRectangle;html=1;whiteSpace=wrap;connectable=0;fillColor=none;top=0;left=0;bottom=0;right=0;overflow=hidden;fontSize=23;" vertex="1" parent="22">
                    <mxGeometry width="151" height="60" as="geometry">
                        <mxRectangle width="151" height="60" as="alternateBounds"/>
                    </mxGeometry>
                </mxCell>
                <mxCell id="24" value="&lt;table cellpadding=&quot;0&quot; cellspacing=&quot;0&quot; style=&quot;font-size: 23px;&quot;&gt;&lt;tbody style=&quot;font-size: 23px;&quot;&gt;&lt;tr style=&quot;font-size: 23px;&quot;&gt;&lt;td valign=&quot;top&quot; colspan=&quot;10&quot; style=&quot;font-size: 23px;&quot;&gt;&lt;p style=&quot;margin: 0px; font-variant-numeric: normal; font-variant-east-asian: normal; font-variant-alternates: normal; font-size-adjust: none; font-kerning: auto; font-optical-sizing: auto; font-feature-settings: normal; font-variation-settings: normal; font-variant-position: normal; font-stretch: normal; font-size: 23px; line-height: normal;&quot; class=&quot;p1&quot;&gt;JAVA , DB 프로그래밍 언어를 모두 활용할 수 있도록 하고 1인당 CRUD 구현을 1개 이상을 담당.&lt;/p&gt;&lt;/td&gt;&lt;/tr&gt;&lt;/tbody&gt;&lt;/table&gt;" style="shape=partialRectangle;html=1;whiteSpace=wrap;connectable=0;fillColor=none;top=0;left=0;bottom=0;right=0;align=left;spacingLeft=6;overflow=hidden;fontSize=23;" vertex="1" parent="22">
                    <mxGeometry x="151" width="909" height="60" as="geometry">
                        <mxRectangle width="909" height="60" as="alternateBounds"/>
                    </mxGeometry>
                </mxCell>
                <mxCell id="57" value="" style="edgeStyle=none;html=1;fontSize=23;" edge="1" parent="1" source="26" target="51">
                    <mxGeometry relative="1" as="geometry"/>
                </mxCell>
                <mxCell id="59" value="" style="edgeStyle=none;html=1;fontSize=23;entryX=0.5;entryY=0;entryDx=0;entryDy=0;" edge="1" parent="1" source="26" target="29">
                    <mxGeometry relative="1" as="geometry">
                        <mxPoint x="-140" y="-480" as="targetPoint"/>
                        <Array as="points">
                            <mxPoint x="-780" y="-480"/>
                        </Array>
                    </mxGeometry>
                </mxCell>
                <mxCell id="61" value="" style="edgeStyle=none;html=1;fontSize=23;entryX=0.569;entryY=-0.006;entryDx=0;entryDy=0;entryPerimeter=0;" edge="1" parent="1" source="26" target="54">
                    <mxGeometry relative="1" as="geometry">
                        <mxPoint x="730" y="-480" as="targetPoint"/>
                        <Array as="points">
                            <mxPoint x="2240" y="-470"/>
                        </Array>
                    </mxGeometry>
                </mxCell>
                <mxCell id="26" value="메인화면" style="rounded=1;whiteSpace=wrap;html=1;fontSize=23;fontStyle=1;fontColor=#FF3333;" vertex="1" parent="1">
                    <mxGeometry x="560" y="-510" width="140" height="60" as="geometry"/>
                </mxCell>
                <mxCell id="63" value="" style="edgeStyle=none;html=1;fontSize=23;entryX=0.5;entryY=0;entryDx=0;entryDy=0;" edge="1" parent="1" source="29" target="37">
                    <mxGeometry relative="1" as="geometry">
                        <mxPoint x="-620" y="-350" as="targetPoint"/>
                        <Array as="points">
                            <mxPoint x="-1210" y="-350"/>
                        </Array>
                    </mxGeometry>
                </mxCell>
                <mxCell id="65" value="" style="edgeStyle=none;html=1;fontSize=23;entryX=0.5;entryY=0;entryDx=0;entryDy=0;" edge="1" parent="1" source="29" target="38">
                    <mxGeometry relative="1" as="geometry">
                        <mxPoint x="-320" y="-350" as="targetPoint"/>
                        <Array as="points">
                            <mxPoint x="-400" y="-350"/>
                        </Array>
                    </mxGeometry>
                </mxCell>
                <mxCell id="29" value="1.렌트" style="rounded=1;whiteSpace=wrap;html=1;fontSize=23;fontColor=#66FFFF;" vertex="1" parent="1">
                    <mxGeometry x="-850" y="-380" width="140" height="60" as="geometry"/>
                </mxCell>
                <mxCell id="77" value="" style="edgeStyle=none;html=1;fontSize=23;fontColor=#33FF33;" edge="1" parent="1" source="37" target="76">
                    <mxGeometry relative="1" as="geometry">
                        <Array as="points">
                            <mxPoint x="-1500" y="-200"/>
                        </Array>
                    </mxGeometry>
                </mxCell>
                <mxCell id="79" value="" style="edgeStyle=none;html=1;fontSize=23;fontColor=#33FF33;" edge="1" parent="1" source="37" target="78">
                    <mxGeometry relative="1" as="geometry"/>
                </mxCell>
                <mxCell id="82" value="" style="edgeStyle=none;html=1;fontSize=23;fontColor=#33FF33;" edge="1" parent="1" source="37" target="81">
                    <mxGeometry relative="1" as="geometry">
                        <Array as="points">
                            <mxPoint x="-910" y="-200"/>
                        </Array>
                    </mxGeometry>
                </mxCell>
                <mxCell id="120" value="" style="edgeStyle=none;html=1;fontSize=23;fontColor=#FFFF33;labelBorderColor=#FF00FF;" edge="1" parent="1" source="37">
                    <mxGeometry relative="1" as="geometry">
                        <mxPoint x="-1378" y="-268" as="targetPoint"/>
                    </mxGeometry>
                </mxCell>
                <mxCell id="37" value="1.국산차" style="rounded=1;whiteSpace=wrap;html=1;fontSize=23;fontColor=#33FF33;" vertex="1" parent="1">
                    <mxGeometry x="-1280" y="-230" width="140" height="60" as="geometry"/>
                </mxCell>
                <mxCell id="84" value="" style="edgeStyle=none;html=1;fontSize=23;fontColor=#33FF33;" edge="1" parent="1" source="38" target="83">
                    <mxGeometry relative="1" as="geometry">
                        <Array as="points">
                            <mxPoint x="-680" y="-200"/>
                        </Array>
                    </mxGeometry>
                </mxCell>
                <mxCell id="86" value="" style="edgeStyle=none;html=1;fontSize=23;fontColor=#33FF33;" edge="1" parent="1" source="38" target="85">
                    <mxGeometry relative="1" as="geometry"/>
                </mxCell>
                <mxCell id="88" value="" style="edgeStyle=none;html=1;fontSize=23;fontColor=#33FF33;" edge="1" parent="1" source="38" target="87">
                    <mxGeometry relative="1" as="geometry">
                        <Array as="points">
                            <mxPoint x="-130" y="-200"/>
                        </Array>
                    </mxGeometry>
                </mxCell>
                <mxCell id="38" value="2.수입차" style="rounded=1;whiteSpace=wrap;html=1;fontSize=23;fontColor=#33FF33;" vertex="1" parent="1">
                    <mxGeometry x="-470" y="-230" width="140" height="60" as="geometry"/>
                </mxCell>
                <mxCell id="67" value="" style="edgeStyle=none;html=1;fontSize=23;entryX=0.5;entryY=0;entryDx=0;entryDy=0;" edge="1" parent="1" source="51" target="52">
                    <mxGeometry relative="1" as="geometry">
                        <mxPoint x="400" y="-360" as="targetPoint"/>
                        <Array as="points">
                            <mxPoint x="250" y="-360"/>
                        </Array>
                    </mxGeometry>
                </mxCell>
                <mxCell id="69" value="" style="edgeStyle=none;html=1;fontSize=23;entryX=0.5;entryY=0;entryDx=0;entryDy=0;" edge="1" parent="1" source="51" target="53">
                    <mxGeometry relative="1" as="geometry">
                        <mxPoint x="700" y="-360" as="targetPoint"/>
                        <Array as="points">
                            <mxPoint x="1010" y="-360"/>
                        </Array>
                    </mxGeometry>
                </mxCell>
                <mxCell id="51" value="2.리스" style="rounded=1;whiteSpace=wrap;html=1;fontSize=23;fontColor=#66FFFF;" vertex="1" parent="1">
                    <mxGeometry x="560" y="-390" width="140" height="60" as="geometry"/>
                </mxCell>
                <mxCell id="91" value="" style="edgeStyle=none;html=1;fontSize=23;fontColor=#33FF33;" edge="1" parent="1" source="52" target="90">
                    <mxGeometry relative="1" as="geometry">
                        <Array as="points">
                            <mxPoint x="60" y="-200"/>
                        </Array>
                    </mxGeometry>
                </mxCell>
                <mxCell id="93" value="" style="edgeStyle=none;html=1;fontSize=23;fontColor=#33FF33;" edge="1" parent="1" source="52" target="92">
                    <mxGeometry relative="1" as="geometry"/>
                </mxCell>
                <mxCell id="96" value="" style="edgeStyle=none;html=1;fontSize=23;fontColor=#33FF33;" edge="1" parent="1" source="52" target="95">
                    <mxGeometry relative="1" as="geometry">
                        <Array as="points">
                            <mxPoint x="470" y="-200"/>
                        </Array>
                    </mxGeometry>
                </mxCell>
                <mxCell id="52" value="1.국산차" style="rounded=1;whiteSpace=wrap;html=1;fontSize=23;fontColor=#33FF33;" vertex="1" parent="1">
                    <mxGeometry x="180" y="-230" width="140" height="60" as="geometry"/>
                </mxCell>
                <mxCell id="98" value="" style="edgeStyle=none;html=1;fontSize=23;fontColor=#33FF33;" edge="1" parent="1" source="53" target="97">
                    <mxGeometry relative="1" as="geometry">
                        <Array as="points">
                            <mxPoint x="740" y="-200"/>
                        </Array>
                    </mxGeometry>
                </mxCell>
                <mxCell id="101" value="" style="edgeStyle=none;html=1;fontSize=23;fontColor=#33FF33;" edge="1" parent="1" source="53" target="100">
                    <mxGeometry relative="1" as="geometry"/>
                </mxCell>
                <mxCell id="103" value="" style="edgeStyle=none;html=1;fontSize=23;fontColor=#33FF33;" edge="1" parent="1" source="53" target="102">
                    <mxGeometry relative="1" as="geometry">
                        <Array as="points">
                            <mxPoint x="1280" y="-200"/>
                        </Array>
                    </mxGeometry>
                </mxCell>
                <mxCell id="53" value="2.수입차" style="rounded=1;whiteSpace=wrap;html=1;fontSize=23;fontColor=#33FF33;" vertex="1" parent="1">
                    <mxGeometry x="940" y="-230" width="140" height="60" as="geometry"/>
                </mxCell>
                <mxCell id="72" value="" style="edgeStyle=none;html=1;fontSize=23;entryX=0.5;entryY=0;entryDx=0;entryDy=0;" edge="1" parent="1" source="54" target="55">
                    <mxGeometry relative="1" as="geometry">
                        <mxPoint x="1940" y="-360" as="targetPoint"/>
                        <Array as="points">
                            <mxPoint x="1790" y="-360"/>
                        </Array>
                    </mxGeometry>
                </mxCell>
                <mxCell id="75" value="" style="edgeStyle=none;html=1;fontSize=23;entryX=0.5;entryY=0;entryDx=0;entryDy=0;" edge="1" parent="1" source="54" target="56">
                    <mxGeometry relative="1" as="geometry">
                        <mxPoint x="2240" y="-360" as="targetPoint"/>
                        <Array as="points">
                            <mxPoint x="2600" y="-360"/>
                        </Array>
                    </mxGeometry>
                </mxCell>
                <mxCell id="54" value="3.신차/할부" style="rounded=1;whiteSpace=wrap;html=1;fontSize=23;fontColor=#66FFFF;" vertex="1" parent="1">
                    <mxGeometry x="2160" y="-390" width="140" height="60" as="geometry"/>
                </mxCell>
                <mxCell id="105" value="" style="edgeStyle=none;html=1;fontSize=23;fontColor=#33FF33;" edge="1" parent="1" source="55" target="104">
                    <mxGeometry relative="1" as="geometry">
                        <Array as="points">
                            <mxPoint x="1490" y="-200"/>
                        </Array>
                    </mxGeometry>
                </mxCell>
                <mxCell id="107" value="" style="edgeStyle=none;html=1;fontSize=23;fontColor=#33FF33;" edge="1" parent="1" source="55" target="106">
                    <mxGeometry relative="1" as="geometry"/>
                </mxCell>
                <mxCell id="109" value="" style="edgeStyle=none;html=1;fontSize=23;fontColor=#33FF33;" edge="1" parent="1" source="55" target="108">
                    <mxGeometry relative="1" as="geometry">
                        <Array as="points">
                            <mxPoint x="2080" y="-200"/>
                        </Array>
                    </mxGeometry>
                </mxCell>
                <mxCell id="55" value="1.국산차" style="rounded=1;whiteSpace=wrap;html=1;fontSize=23;fontColor=#33FF33;" vertex="1" parent="1">
                    <mxGeometry x="1720" y="-230" width="140" height="60" as="geometry"/>
                </mxCell>
                <mxCell id="111" value="" style="edgeStyle=none;html=1;fontSize=23;fontColor=#33FF33;" edge="1" parent="1" source="56" target="110">
                    <mxGeometry relative="1" as="geometry">
                        <Array as="points">
                            <mxPoint x="2278" y="-200"/>
                        </Array>
                    </mxGeometry>
                </mxCell>
                <mxCell id="113" value="" style="edgeStyle=none;html=1;fontSize=23;fontColor=#33FF33;" edge="1" parent="1" source="56" target="112">
                    <mxGeometry relative="1" as="geometry"/>
                </mxCell>
                <mxCell id="115" value="" style="edgeStyle=none;html=1;fontSize=23;fontColor=#33FF33;" edge="1" parent="1" source="56" target="114">
                    <mxGeometry relative="1" as="geometry">
                        <Array as="points">
                            <mxPoint x="2930" y="-200"/>
                        </Array>
                    </mxGeometry>
                </mxCell>
                <mxCell id="56" value="2.수입차" style="rounded=1;whiteSpace=wrap;html=1;fontSize=23;fontColor=#33FF33;" vertex="1" parent="1">
                    <mxGeometry x="2530" y="-230" width="140" height="60" as="geometry"/>
                </mxCell>
                <mxCell id="180" value="" style="edgeStyle=none;html=1;labelBorderColor=#FF00FF;fontSize=23;fontColor=#FFFFFF;" edge="1" parent="1" source="76" target="179">
                    <mxGeometry relative="1" as="geometry">
                        <Array as="points">
                            <mxPoint x="-1500" y="120"/>
                        </Array>
                    </mxGeometry>
                </mxCell>
                <mxCell id="185" value="" style="edgeStyle=none;html=1;labelBorderColor=#FF00FF;fontSize=23;fontColor=#FFFFFF;entryX=1;entryY=0.5;entryDx=0;entryDy=0;" edge="1" parent="1" source="76" target="183">
                    <mxGeometry relative="1" as="geometry">
                        <mxPoint x="-1500" y="320" as="targetPoint"/>
                        <Array as="points">
                            <mxPoint x="-1500" y="230"/>
                        </Array>
                    </mxGeometry>
                </mxCell>
                <mxCell id="76" value="1.현대" style="whiteSpace=wrap;html=1;fontSize=23;fontColor=#FFFF33;rounded=1;" vertex="1" parent="1">
                    <mxGeometry x="-1560" y="-20" width="120" height="60" as="geometry"/>
                </mxCell>
                <mxCell id="78" value="2.기아" style="whiteSpace=wrap;html=1;fontSize=23;fontColor=#FFFF33;rounded=1;" vertex="1" parent="1">
                    <mxGeometry x="-1270" y="-30" width="120" height="60" as="geometry"/>
                </mxCell>
                <mxCell id="81" value="3.쉐보레" style="whiteSpace=wrap;html=1;fontSize=23;fontColor=#FFFF33;rounded=1;" vertex="1" parent="1">
                    <mxGeometry x="-970" y="-30" width="120" height="60" as="geometry"/>
                </mxCell>
                <mxCell id="83" value="1.벤츠" style="whiteSpace=wrap;html=1;fontSize=23;fontColor=#FFFF33;rounded=1;" vertex="1" parent="1">
                    <mxGeometry x="-740" y="-30" width="120" height="60" as="geometry"/>
                </mxCell>
                <mxCell id="85" value="2.BMW" style="whiteSpace=wrap;html=1;fontSize=23;fontColor=#FFFF33;rounded=1;" vertex="1" parent="1">
                    <mxGeometry x="-460" y="-30" width="120" height="60" as="geometry"/>
                </mxCell>
                <mxCell id="87" value="3.아우디" style="whiteSpace=wrap;html=1;fontSize=23;fontColor=#FFFF33;rounded=1;" vertex="1" parent="1">
                    <mxGeometry x="-190" y="-30" width="120" height="60" as="geometry"/>
                </mxCell>
                <mxCell id="90" value="1.현대" style="whiteSpace=wrap;html=1;fontSize=23;fontColor=#FFFF33;rounded=1;" vertex="1" parent="1">
                    <mxGeometry y="-30" width="120" height="60" as="geometry"/>
                </mxCell>
                <mxCell id="92" value="2.기아" style="whiteSpace=wrap;html=1;fontSize=23;fontColor=#FFFF33;rounded=1;" vertex="1" parent="1">
                    <mxGeometry x="190" y="-30" width="120" height="60" as="geometry"/>
                </mxCell>
                <mxCell id="95" value="3.쉐보레" style="whiteSpace=wrap;html=1;fontSize=23;fontColor=#FFFF33;rounded=1;" vertex="1" parent="1">
                    <mxGeometry x="410" y="-30" width="120" height="60" as="geometry"/>
                </mxCell>
                <mxCell id="97" value="1.벤츠" style="whiteSpace=wrap;html=1;fontSize=23;fontColor=#FFFF33;rounded=1;" vertex="1" parent="1">
                    <mxGeometry x="680" y="-30" width="120" height="60" as="geometry"/>
                </mxCell>
                <mxCell id="100" value="2.BMW" style="whiteSpace=wrap;html=1;fontSize=23;fontColor=#FFFF33;rounded=1;" vertex="1" parent="1">
                    <mxGeometry x="950" y="-30" width="120" height="60" as="geometry"/>
                </mxCell>
                <mxCell id="102" value="3.아우디" style="whiteSpace=wrap;html=1;fontSize=23;fontColor=#FFFF33;rounded=1;" vertex="1" parent="1">
                    <mxGeometry x="1220" y="-30" width="120" height="60" as="geometry"/>
                </mxCell>
                <mxCell id="104" value="1.현대" style="whiteSpace=wrap;html=1;fontSize=23;fontColor=#FFFF33;rounded=1;" vertex="1" parent="1">
                    <mxGeometry x="1430" y="-30" width="120" height="60" as="geometry"/>
                </mxCell>
                <mxCell id="106" value="2.기아" style="whiteSpace=wrap;html=1;fontSize=23;fontColor=#FFFF33;rounded=1;" vertex="1" parent="1">
                    <mxGeometry x="1730" y="-30" width="120" height="60" as="geometry"/>
                </mxCell>
                <mxCell id="108" value="3.쉐보레" style="whiteSpace=wrap;html=1;fontSize=23;fontColor=#FFFF33;rounded=1;" vertex="1" parent="1">
                    <mxGeometry x="2020" y="-30" width="120" height="60" as="geometry"/>
                </mxCell>
                <mxCell id="110" value="1.벤츠" style="whiteSpace=wrap;html=1;fontSize=23;fontColor=#FFFF33;rounded=1;" vertex="1" parent="1">
                    <mxGeometry x="2218" y="-30" width="120" height="60" as="geometry"/>
                </mxCell>
                <mxCell id="112" value="2.BMW" style="whiteSpace=wrap;html=1;fontSize=23;fontColor=#FFFF33;rounded=1;" vertex="1" parent="1">
                    <mxGeometry x="2540" y="-30" width="120" height="60" as="geometry"/>
                </mxCell>
                <mxCell id="114" value="3.아우디" style="whiteSpace=wrap;html=1;fontSize=23;fontColor=#FFFF33;rounded=1;" vertex="1" parent="1">
                    <mxGeometry x="2870" y="-30" width="120" height="60" as="geometry"/>
                </mxCell>
                <mxCell id="119" value="0.뒤로" style="rhombus;whiteSpace=wrap;html=1;fontSize=23;fontColor=#FFFFFF;rounded=1;fontStyle=0" vertex="1" parent="1">
                    <mxGeometry x="-1480" y="-340" width="120" height="110" as="geometry"/>
                </mxCell>
                <mxCell id="121" value="" style="edgeStyle=none;html=1;fontSize=23;fontColor=#FFFF33;labelBorderColor=#FF00FF;" edge="1" parent="1">
                    <mxGeometry relative="1" as="geometry">
                        <mxPoint x="-470" y="-228.33333333333326" as="sourcePoint"/>
                        <mxPoint x="-568" y="-268" as="targetPoint"/>
                    </mxGeometry>
                </mxCell>
                <mxCell id="122" value="0.뒤로" style="rhombus;whiteSpace=wrap;html=1;fontSize=23;fontColor=#FFFFFF;rounded=1;fontStyle=0" vertex="1" parent="1">
                    <mxGeometry x="-670" y="-340" width="120" height="110" as="geometry"/>
                </mxCell>
                <mxCell id="123" value="" style="edgeStyle=none;html=1;fontSize=23;fontColor=#FFFF33;labelBorderColor=#FF00FF;" edge="1" parent="1">
                    <mxGeometry relative="1" as="geometry">
                        <mxPoint x="180" y="-230.00333333333327" as="sourcePoint"/>
                        <mxPoint x="82" y="-269.67" as="targetPoint"/>
                    </mxGeometry>
                </mxCell>
                <mxCell id="124" value="0.뒤로" style="rhombus;whiteSpace=wrap;html=1;fontSize=23;fontColor=#FFFFFF;rounded=1;fontStyle=0" vertex="1" parent="1">
                    <mxGeometry x="-20" y="-341.67" width="120" height="110" as="geometry"/>
                </mxCell>
                <mxCell id="125" value="" style="edgeStyle=none;html=1;fontSize=23;fontColor=#FFFF33;labelBorderColor=#FF00FF;" edge="1" parent="1">
                    <mxGeometry relative="1" as="geometry">
                        <mxPoint x="940" y="-228.33333333333331" as="sourcePoint"/>
                        <mxPoint x="842" y="-268.0000000000001" as="targetPoint"/>
                    </mxGeometry>
                </mxCell>
                <mxCell id="126" value="0.뒤로" style="rhombus;whiteSpace=wrap;html=1;fontSize=23;fontColor=#FFFFFF;rounded=1;fontStyle=0" vertex="1" parent="1">
                    <mxGeometry x="740" y="-340.00000000000006" width="120" height="110" as="geometry"/>
                </mxCell>
                <mxCell id="127" value="" style="edgeStyle=none;html=1;fontSize=23;fontColor=#FFFF33;labelBorderColor=#FF00FF;" edge="1" parent="1">
                    <mxGeometry relative="1" as="geometry">
                        <mxPoint x="1720" y="-231.67333333333326" as="sourcePoint"/>
                        <mxPoint x="1622" y="-271.34" as="targetPoint"/>
                    </mxGeometry>
                </mxCell>
                <mxCell id="128" value="0.뒤로" style="rhombus;whiteSpace=wrap;html=1;fontSize=23;fontColor=#FFFFFF;rounded=1;fontStyle=0" vertex="1" parent="1">
                    <mxGeometry x="1520" y="-343.34000000000003" width="120" height="110" as="geometry"/>
                </mxCell>
                <mxCell id="129" value="" style="edgeStyle=none;html=1;fontSize=23;fontColor=#FFFF33;labelBorderColor=#FF00FF;" edge="1" parent="1">
                    <mxGeometry relative="1" as="geometry">
                        <mxPoint x="2530" y="-228.33333333333317" as="sourcePoint"/>
                        <mxPoint x="2432" y="-267.99999999999994" as="targetPoint"/>
                    </mxGeometry>
                </mxCell>
                <mxCell id="130" value="0.뒤로" style="rhombus;whiteSpace=wrap;html=1;fontSize=23;fontColor=#FFFFFF;rounded=1;fontStyle=0" vertex="1" parent="1">
                    <mxGeometry x="2330" y="-340.00000000000006" width="120" height="110" as="geometry"/>
                </mxCell>
                <mxCell id="132" value="" style="edgeStyle=none;html=1;fontSize=23;fontColor=#FFFF33;labelBorderColor=#FF00FF;" edge="1" parent="1">
                    <mxGeometry relative="1" as="geometry">
                        <mxPoint x="-850" y="-380.0033333333332" as="sourcePoint"/>
                        <mxPoint x="-948" y="-419.66999999999996" as="targetPoint"/>
                    </mxGeometry>
                </mxCell>
                <mxCell id="133" value="0.뒤로" style="rhombus;whiteSpace=wrap;html=1;fontSize=23;fontColor=#FFFFFF;rounded=1;fontStyle=0" vertex="1" parent="1">
                    <mxGeometry x="-1050" y="-491.66999999999996" width="120" height="110" as="geometry"/>
                </mxCell>
                <mxCell id="134" value="" style="edgeStyle=none;html=1;fontSize=23;fontColor=#FFFF33;labelBorderColor=#FF00FF;" edge="1" parent="1">
                    <mxGeometry relative="1" as="geometry">
                        <mxPoint x="560" y="-380.0033333333333" as="sourcePoint"/>
                        <mxPoint x="462" y="-419.67" as="targetPoint"/>
                    </mxGeometry>
                </mxCell>
                <mxCell id="135" value="0.뒤로" style="rhombus;whiteSpace=wrap;html=1;fontSize=23;fontColor=#FFFFFF;rounded=1;fontStyle=0" vertex="1" parent="1">
                    <mxGeometry x="360" y="-491.67" width="120" height="110" as="geometry"/>
                </mxCell>
                <mxCell id="136" value="" style="edgeStyle=none;html=1;fontSize=23;fontColor=#FFFF33;labelBorderColor=#FF00FF;" edge="1" parent="1">
                    <mxGeometry relative="1" as="geometry">
                        <mxPoint x="2160" y="-380.0033333333332" as="sourcePoint"/>
                        <mxPoint x="2062" y="-419.66999999999996" as="targetPoint"/>
                    </mxGeometry>
                </mxCell>
                <mxCell id="137" value="0.뒤로" style="rhombus;whiteSpace=wrap;html=1;fontSize=23;fontColor=#FFFFFF;rounded=1;fontStyle=0" vertex="1" parent="1">
                    <mxGeometry x="1960" y="-491.6700000000001" width="120" height="110" as="geometry"/>
                </mxCell>
                <mxCell id="138" value="" style="edgeStyle=none;html=1;fontSize=23;fontColor=#FFFF33;labelBorderColor=#FF00FF;" edge="1" parent="1">
                    <mxGeometry relative="1" as="geometry">
                        <mxPoint x="-1560" y="-20.003333333333245" as="sourcePoint"/>
                        <mxPoint x="-1658" y="-59.66999999999999" as="targetPoint"/>
                    </mxGeometry>
                </mxCell>
                <mxCell id="139" value="0.뒤로" style="rhombus;whiteSpace=wrap;html=1;fontSize=23;fontColor=#FFFFFF;rounded=1;fontStyle=0" vertex="1" parent="1">
                    <mxGeometry x="-1760" y="-131.67" width="120" height="110" as="geometry"/>
                </mxCell>
                <mxCell id="140" value="" style="edgeStyle=none;html=1;fontSize=23;fontColor=#FFFF33;" edge="1" parent="1">
                    <mxGeometry relative="1" as="geometry">
                        <mxPoint x="-1270" y="-30.003333333333245" as="sourcePoint"/>
                        <mxPoint x="-1368" y="-69.66999999999999" as="targetPoint"/>
                    </mxGeometry>
                </mxCell>
                <mxCell id="141" value="0.뒤로" style="rhombus;whiteSpace=wrap;html=1;fontSize=23;fontColor=#FFFFFF;rounded=1;fontStyle=0" vertex="1" parent="1">
                    <mxGeometry x="-1470" y="-141.67" width="120" height="110" as="geometry"/>
                </mxCell>
                <mxCell id="142" value="" style="edgeStyle=none;html=1;fontSize=23;fontColor=#FFFF33;labelBorderColor=#FF00FF;" edge="1" parent="1">
                    <mxGeometry relative="1" as="geometry">
                        <mxPoint x="-969" y="-30.003333333333245" as="sourcePoint"/>
                        <mxPoint x="-1067" y="-69.66999999999999" as="targetPoint"/>
                    </mxGeometry>
                </mxCell>
                <mxCell id="143" value="0.뒤로" style="rhombus;whiteSpace=wrap;html=1;fontSize=23;fontColor=#FFFFFF;rounded=1;fontStyle=0" vertex="1" parent="1">
                    <mxGeometry x="-1169" y="-141.67" width="120" height="110" as="geometry"/>
                </mxCell>
                <mxCell id="144" value="" style="edgeStyle=none;html=1;fontSize=23;fontColor=#FFFF33;labelBorderColor=#FF00FF;" edge="1" parent="1">
                    <mxGeometry relative="1" as="geometry">
                        <mxPoint x="-740" y="-31.67333333333326" as="sourcePoint"/>
                        <mxPoint x="-838" y="-71.34" as="targetPoint"/>
                    </mxGeometry>
                </mxCell>
                <mxCell id="145" value="0.뒤로" style="rhombus;whiteSpace=wrap;html=1;fontSize=23;fontColor=#FFFFFF;rounded=1;fontStyle=0" vertex="1" parent="1">
                    <mxGeometry x="-940" y="-143.34" width="120" height="110" as="geometry"/>
                </mxCell>
                <mxCell id="146" value="" style="edgeStyle=none;html=1;fontSize=23;fontColor=#FFFF33;labelBorderColor=#FF00FF;" edge="1" parent="1">
                    <mxGeometry relative="1" as="geometry">
                        <mxPoint x="-460" y="-30.003333333333245" as="sourcePoint"/>
                        <mxPoint x="-558" y="-69.66999999999999" as="targetPoint"/>
                    </mxGeometry>
                </mxCell>
                <mxCell id="147" value="0.뒤로" style="rhombus;whiteSpace=wrap;html=1;fontSize=23;fontColor=#FFFFFF;rounded=1;fontStyle=0" vertex="1" parent="1">
                    <mxGeometry x="-660" y="-141.67" width="120" height="110" as="geometry"/>
                </mxCell>
                <mxCell id="148" value="" style="edgeStyle=none;html=1;fontSize=23;fontColor=#FFFF33;labelBorderColor=#FF00FF;" edge="1" parent="1">
                    <mxGeometry relative="1" as="geometry">
                        <mxPoint x="-190" y="-30.003333333333245" as="sourcePoint"/>
                        <mxPoint x="-288" y="-69.66999999999999" as="targetPoint"/>
                    </mxGeometry>
                </mxCell>
                <mxCell id="149" value="0.뒤로" style="rhombus;whiteSpace=wrap;html=1;fontSize=23;fontColor=#FFFFFF;rounded=1;fontStyle=0" vertex="1" parent="1">
                    <mxGeometry x="-390" y="-141.67" width="120" height="110" as="geometry"/>
                </mxCell>
                <mxCell id="150" value="" style="edgeStyle=none;html=1;fontSize=23;fontColor=#FFFF33;labelBorderColor=#FF00FF;" edge="1" parent="1">
                    <mxGeometry relative="1" as="geometry">
                        <mxPoint y="-30.003333333333245" as="sourcePoint"/>
                        <mxPoint x="-98" y="-69.66999999999999" as="targetPoint"/>
                    </mxGeometry>
                </mxCell>
                <mxCell id="151" value="0.뒤로" style="rhombus;whiteSpace=wrap;html=1;fontSize=23;fontColor=#FFFFFF;rounded=1;fontStyle=0" vertex="1" parent="1">
                    <mxGeometry x="-200" y="-141.67" width="120" height="110" as="geometry"/>
                </mxCell>
                <mxCell id="152" value="" style="edgeStyle=none;html=1;fontSize=23;fontColor=#FFFF33;labelBorderColor=#FF00FF;" edge="1" parent="1">
                    <mxGeometry relative="1" as="geometry">
                        <mxPoint x="190" y="-33.343333333333334" as="sourcePoint"/>
                        <mxPoint x="92" y="-73.01000000000008" as="targetPoint"/>
                    </mxGeometry>
                </mxCell>
                <mxCell id="153" value="0.뒤로" style="rhombus;whiteSpace=wrap;html=1;fontSize=23;fontColor=#FFFFFF;rounded=1;fontStyle=0" vertex="1" parent="1">
                    <mxGeometry x="-10" y="-145.01000000000002" width="120" height="110" as="geometry"/>
                </mxCell>
                <mxCell id="154" value="" style="edgeStyle=none;html=1;fontSize=23;fontColor=#FFFF33;labelBorderColor=#FF00FF;" edge="1" parent="1">
                    <mxGeometry relative="1" as="geometry">
                        <mxPoint x="410" y="-30.00333333333333" as="sourcePoint"/>
                        <mxPoint x="312" y="-69.67000000000007" as="targetPoint"/>
                    </mxGeometry>
                </mxCell>
                <mxCell id="155" value="0.뒤로" style="rhombus;whiteSpace=wrap;html=1;fontSize=23;fontColor=#FFFFFF;rounded=1;fontStyle=0" vertex="1" parent="1">
                    <mxGeometry x="210" y="-141.67000000000002" width="120" height="110" as="geometry"/>
                </mxCell>
                <mxCell id="156" value="" style="edgeStyle=none;html=1;fontSize=23;fontColor=#FFFF33;labelBorderColor=#FF00FF;" edge="1" parent="1">
                    <mxGeometry relative="1" as="geometry">
                        <mxPoint x="680" y="-30.00333333333333" as="sourcePoint"/>
                        <mxPoint x="582" y="-69.67000000000007" as="targetPoint"/>
                    </mxGeometry>
                </mxCell>
                <mxCell id="157" value="0.뒤로" style="rhombus;whiteSpace=wrap;html=1;fontSize=23;fontColor=#FFFFFF;rounded=1;fontStyle=0" vertex="1" parent="1">
                    <mxGeometry x="480" y="-141.67000000000002" width="120" height="110" as="geometry"/>
                </mxCell>
                <mxCell id="158" value="" style="edgeStyle=none;html=1;fontSize=23;fontColor=#FFFF33;labelBorderColor=#FF00FF;" edge="1" parent="1">
                    <mxGeometry relative="1" as="geometry">
                        <mxPoint x="950" y="-30.00333333333333" as="sourcePoint"/>
                        <mxPoint x="852" y="-69.67000000000007" as="targetPoint"/>
                    </mxGeometry>
                </mxCell>
                <mxCell id="159" value="0.뒤로" style="rhombus;whiteSpace=wrap;html=1;fontSize=23;fontColor=#FFFFFF;rounded=1;fontStyle=0" vertex="1" parent="1">
                    <mxGeometry x="750" y="-141.67000000000002" width="120" height="110" as="geometry"/>
                </mxCell>
                <mxCell id="160" value="" style="edgeStyle=none;html=1;fontSize=23;fontColor=#FFFF33;labelBorderColor=#FF00FF;" edge="1" parent="1">
                    <mxGeometry relative="1" as="geometry">
                        <mxPoint x="1220" y="-30.00333333333333" as="sourcePoint"/>
                        <mxPoint x="1122" y="-69.67000000000007" as="targetPoint"/>
                    </mxGeometry>
                </mxCell>
                <mxCell id="161" value="0.뒤로" style="rhombus;whiteSpace=wrap;html=1;fontSize=23;fontColor=#FFFFFF;rounded=1;fontStyle=0" vertex="1" parent="1">
                    <mxGeometry x="1020" y="-141.67000000000002" width="120" height="110" as="geometry"/>
                </mxCell>
                <mxCell id="164" value="" style="edgeStyle=none;html=1;fontSize=23;fontColor=#FFFF33;labelBorderColor=#FF00FF;" edge="1" parent="1">
                    <mxGeometry relative="1" as="geometry">
                        <mxPoint x="1430" y="-30.003333333333188" as="sourcePoint"/>
                        <mxPoint x="1332" y="-69.66999999999993" as="targetPoint"/>
                    </mxGeometry>
                </mxCell>
                <mxCell id="165" value="0.뒤로" style="rhombus;whiteSpace=wrap;html=1;fontSize=23;fontColor=#FFFFFF;rounded=1;fontStyle=0" vertex="1" parent="1">
                    <mxGeometry x="1230" y="-141.67000000000004" width="120" height="110" as="geometry"/>
                </mxCell>
                <mxCell id="166" value="" style="edgeStyle=none;html=1;fontSize=23;fontColor=#FFFF33;labelBorderColor=#FF00FF;" edge="1" parent="1">
                    <mxGeometry relative="1" as="geometry">
                        <mxPoint x="1730" y="-30.003333333333188" as="sourcePoint"/>
                        <mxPoint x="1632" y="-69.66999999999993" as="targetPoint"/>
                    </mxGeometry>
                </mxCell>
                <mxCell id="167" value="0.뒤로" style="rhombus;whiteSpace=wrap;html=1;fontSize=23;fontColor=#FFFFFF;rounded=1;fontStyle=0" vertex="1" parent="1">
                    <mxGeometry x="1530" y="-141.67000000000004" width="120" height="110" as="geometry"/>
                </mxCell>
                <mxCell id="168" value="" style="edgeStyle=none;html=1;fontSize=23;fontColor=#FFFF33;labelBorderColor=#FF00FF;" edge="1" parent="1">
                    <mxGeometry relative="1" as="geometry">
                        <mxPoint x="2020" y="-30.003333333333188" as="sourcePoint"/>
                        <mxPoint x="1922" y="-69.66999999999993" as="targetPoint"/>
                    </mxGeometry>
                </mxCell>
                <mxCell id="169" value="0.뒤로" style="rhombus;whiteSpace=wrap;html=1;fontSize=23;fontColor=#FFFFFF;rounded=1;fontStyle=0" vertex="1" parent="1">
                    <mxGeometry x="1820" y="-141.67000000000004" width="120" height="110" as="geometry"/>
                </mxCell>
                <mxCell id="170" value="" style="edgeStyle=none;html=1;fontSize=23;fontColor=#FFFF33;labelBorderColor=#FF00FF;" edge="1" parent="1">
                    <mxGeometry relative="1" as="geometry">
                        <mxPoint x="2218" y="-30.003333333333188" as="sourcePoint"/>
                        <mxPoint x="2120" y="-69.66999999999993" as="targetPoint"/>
                    </mxGeometry>
                </mxCell>
                <mxCell id="171" value="0.뒤로" style="rhombus;whiteSpace=wrap;html=1;fontSize=23;fontColor=#FFFFFF;rounded=1;fontStyle=0" vertex="1" parent="1">
                    <mxGeometry x="2018" y="-141.67000000000004" width="120" height="110" as="geometry"/>
                </mxCell>
                <mxCell id="172" value="" style="edgeStyle=none;html=1;fontSize=23;fontColor=#FFFF33;labelBorderColor=#FF00FF;" edge="1" parent="1">
                    <mxGeometry relative="1" as="geometry">
                        <mxPoint x="2870" y="-30.003333333333188" as="sourcePoint"/>
                        <mxPoint x="2772" y="-69.66999999999993" as="targetPoint"/>
                    </mxGeometry>
                </mxCell>
                <mxCell id="173" value="0.뒤로" style="rhombus;whiteSpace=wrap;html=1;fontSize=23;fontColor=#FFFFFF;rounded=1;fontStyle=0" vertex="1" parent="1">
                    <mxGeometry x="2670" y="-141.67000000000004" width="120" height="110" as="geometry"/>
                </mxCell>
                <mxCell id="174" value="" style="edgeStyle=none;html=1;fontSize=23;fontColor=#FFFF33;labelBorderColor=#FF00FF;" edge="1" parent="1">
                    <mxGeometry relative="1" as="geometry">
                        <mxPoint x="2540" y="-30.003333333333188" as="sourcePoint"/>
                        <mxPoint x="2442" y="-69.66999999999993" as="targetPoint"/>
                    </mxGeometry>
                </mxCell>
                <mxCell id="175" value="0.뒤로" style="rhombus;whiteSpace=wrap;html=1;fontSize=23;fontColor=#FFFFFF;rounded=1;fontStyle=0" vertex="1" parent="1">
                    <mxGeometry x="2340" y="-141.67000000000004" width="120" height="110" as="geometry"/>
                </mxCell>
                <mxCell id="176" value="" style="edgeStyle=none;html=1;fontSize=23;fontColor=#FFFF33;labelBorderColor=#FF00FF;" edge="1" parent="1">
                    <mxGeometry relative="1" as="geometry">
                        <mxPoint x="-1270" y="-30.003333333333103" as="sourcePoint"/>
                        <mxPoint x="-1368" y="-69.67000000000007" as="targetPoint"/>
                        <Array as="points">
                            <mxPoint x="-1330" y="-60"/>
                        </Array>
                    </mxGeometry>
                </mxCell>
                <mxCell id="179" value="1.팰리세이드" style="whiteSpace=wrap;html=1;fontSize=23;fontColor=#FFFF33;rounded=1;" vertex="1" parent="1">
                    <mxGeometry x="-1830" y="90" width="170" height="60" as="geometry"/>
                </mxCell>
                <mxCell id="183" value="2.그랜저" style="whiteSpace=wrap;html=1;fontSize=23;fontColor=#FFFF33;rounded=1;" vertex="1" parent="1">
                    <mxGeometry x="-1830" y="200" width="170" height="60" as="geometry"/>
                </mxCell>
            </root>
        </mxGraphModel>
    </diagram>
</mxfile>